<svg width="1024" height="1024" viewBox="0 0 1024 1024" fill="none" xmlns="http://www.w3.org/2000/svg">
<path d="M196 511.5C196 502.387 203.387 495 212.5 495H299.5C308.613 495 316 502.387 316 511.5C316 520.613 308.613 528 299.5 528H212.5C203.387 528 196 520.613 196 511.5Z" fill="#FCC200" style="fill:#FCC200;fill:color(display-p3 0.9882 0.7608 0.0000);fill-opacity:1;"/>
<path d="M709 511.5C709 502.387 716.387 495 725.5 495H812.5C821.613 495 829 502.387 829 511.5C829 520.613 821.613 528 812.5 528H725.5C716.387 528 709 520.613 709 511.5Z" fill="#FCC200" style="fill:#FCC200;fill:color(display-p3 0.9882 0.7608 0.0000);fill-opacity:1;"/>
<path d="M511.5 195C520.613 195 528 202.387 528 211.5V298.5C528 307.613 520.613 315 511.5 315C502.387 315 495 307.613 495 298.5V211.5C495 202.387 502.387 195 511.5 195Z" fill="#FCC200" style="fill:#FCC200;fill:color(display-p3 0.9882 0.7608 0.0000);fill-opacity:1;"/>
<path d="M511.5 708C520.613 708 528 715.387 528 724.5V811.5C528 820.613 520.613 828 511.5 828C502.387 828 495 820.613 495 811.5V724.5C495 715.387 502.387 708 511.5 708Z" fill="#FCC200" style="fill:#FCC200;fill:color(display-p3 0.9882 0.7608 0.0000);fill-opacity:1;"/>
<path d="M635.425 634.425C639.525 630.324 646.173 630.324 650.274 634.425L701.186 685.336C705.286 689.437 705.286 696.085 701.186 700.186C697.085 704.286 690.437 704.286 686.336 700.186L635.425 649.274C631.324 645.173 631.324 638.525 635.425 634.425Z" fill="#FCC200" style="fill:#FCC200;fill:color(display-p3 0.9882 0.7608 0.0000);fill-opacity:1;"/>
<path d="M323.425 322.425C327.525 318.324 334.173 318.324 338.274 322.425L389.186 373.336C393.286 377.437 393.286 384.085 389.186 388.186C385.085 392.286 378.437 392.286 374.336 388.186L323.425 337.274C319.324 333.173 319.324 326.525 323.425 322.425Z" fill="#FCC200" style="fill:#FCC200;fill:color(display-p3 0.9882 0.7608 0.0000);fill-opacity:1;"/>
<path d="M701.186 322.425C697.085 318.324 690.437 318.324 686.336 322.425L635.425 373.336C631.324 377.437 631.324 384.085 635.425 388.186C639.525 392.286 646.173 392.286 650.274 388.186L701.186 337.274C705.286 333.173 705.286 326.525 701.186 322.425Z" fill="#FCC200" style="fill:#FCC200;fill:color(display-p3 0.9882 0.7608 0.0000);fill-opacity:1;"/>
<path d="M389.186 634.425C385.085 630.324 378.437 630.324 374.336 634.425L323.425 685.336C319.324 689.437 319.324 696.085 323.425 700.186C327.525 704.286 334.173 704.286 338.274 700.186L389.186 649.274C393.286 645.173 393.286 638.525 389.186 634.425Z" fill="#FCC200" style="fill:#FCC200;fill:color(display-p3 0.9882 0.7608 0.0000);fill-opacity:1;"/>
</svg>
