<svg width="1024" height="1024" viewBox="0 0 1024 1024" fill="none" xmlns="http://www.w3.org/2000/svg">
<path d="M528.158 483.352H566.5L495.342 657V539.648H457L528.158 366V483.352Z" fill="#FCC200" style="fill:#FCC200;fill:color(display-p3 0.9882 0.7608 0.0000);fill-opacity:1;"/>
<path d="M528.158 483.352H518.158C518.158 488.874 522.635 493.352 528.158 493.352V483.352ZM566.5 483.352L575.753 487.143C577.017 484.059 576.661 480.548 574.804 477.78C572.947 475.012 569.833 473.352 566.5 473.352V483.352ZM495.342 657H485.342C485.342 661.778 488.722 665.888 493.409 666.812C498.097 667.735 502.783 665.213 504.595 660.792L495.342 657ZM495.342 539.648H505.342C505.342 534.126 500.865 529.648 495.342 529.648V539.648ZM457 539.648L447.747 535.857C446.483 538.941 446.839 542.452 448.696 545.22C450.553 547.988 453.667 549.648 457 549.648V539.648ZM528.158 366H538.158C538.158 361.222 534.778 357.112 530.091 356.188C525.403 355.265 520.717 357.787 518.905 362.208L528.158 366ZM528.158 483.352V493.352H566.5V483.352V473.352H528.158V483.352ZM566.5 483.352L557.247 479.56L486.089 653.208L495.342 657L504.595 660.792L575.753 487.143L566.5 483.352ZM495.342 657H505.342V539.648H495.342H485.342V657H495.342ZM495.342 539.648V529.648H457V539.648V549.648H495.342V539.648ZM457 539.648L466.253 543.44L537.411 369.792L528.158 366L518.905 362.208L447.747 535.857L457 539.648ZM528.158 366H518.158V483.352H528.158H538.158V366H528.158Z" fill="#FCC200" style="fill:#FCC200;fill:color(display-p3 0.9882 0.7608 0.0000);fill-opacity:1;"/>
</svg>
